<?xml version="1.0" standalone="no"?><!DOCTYPE svg PUBLIC "-//W3C//DTD SVG 1.1//EN" "http://www.w3.org/Graphics/SVG/1.1/DTD/svg11.dtd"><svg t="1732194748916" class="icon" viewBox="0 0 1024 1024" version="1.1" xmlns="http://www.w3.org/2000/svg" p-id="7787" xmlns:xlink="http://www.w3.org/1999/xlink" width="200" height="200"><path d="M768 0v85.333333h-85.333333l-0.042667 244.437334 298.666667 512.042666V1024H42.666667v-182.186667L341.333333 329.770667V85.333333H256V0h512z m-238.933333 604.8l-19.754667 14.250667c-83.072 60.16-147.968 73.344-252.885333 25.770666L127.957333 864.853333V938.666667h768v-73.770667l-162.304-278.272c-93.44-37.162667-137.6-28.885333-204.544 18.176zM384 725.333333a85.333333 85.333333 0 1 1 0 170.666667 85.333333 85.333333 0 0 1 0-170.666667z m256-85.333333a85.333333 85.333333 0 1 1 0 170.666667 85.333333 85.333333 0 0 1 0-170.666667zM597.333333 85.333333h-170.666666v267.52l-126.976 217.856c65.365333 28.416 99.029333 21.589333 152.32-15.616l18.901333-13.610666c68.266667-49.621333 125.610667-71.765333 201.088-60.629334l-74.666667-128V85.333333z" fill="#13227a" p-id="7788"></path></svg>